<?xml version="1.0" encoding="UTF-8" standalone="no"?>
<!DOCTYPE svg PUBLIC "-//W3C//DTD SVG 1.1//EN" "http://www.w3.org/Graphics/SVG/1.1/DTD/svg11.dtd">
<svg width="100%" height="100%" viewBox="0 0 200 200" version="1.1" xmlns="http://www.w3.org/2000/svg" xmlns:xlink="http://www.w3.org/1999/xlink" xml:space="preserve" xmlns:serif="http://www.serif.com/" style="fill-rule:evenodd;clip-rule:evenodd;stroke-linejoin:round;stroke-miterlimit:2;">
    <rect id="Prancheta1" x="0" y="0" width="199.995" height="199.995" style="fill:none;"/>
    <g id="Prancheta11" serif:id="Prancheta1">
        <g id="Cruz" transform="matrix(1,0,0,1,10.425546,28.613567)">
            <g transform="matrix(0.194664,0,0,0.19453,-214.451036,0)">
                <path d="M2008.921,167.012L1842.025,167.012L1842.025,0L1911.194,0L1911.194,98.178L2008.921,98.178L2008.921,167.012Z" style="fill:rgb(115,213,240);"/>
            </g>
            <g transform="matrix(-0.194799,-0,0,-0.194664,502.950628,65)">
                <path d="M2008.921,167.012L1842.025,167.012L1842.025,0L1911.194,0L1911.194,98.178L2008.921,98.178L2008.921,167.012Z" style="fill:rgb(115,213,240);"/>
            </g>
            <g transform="matrix(0,-0.194664,0.194664,0,111.614561,391.065596)">
                <path d="M2008.921,167.012L1842.025,167.012L1842.025,0L1911.194,0L1911.194,98.178L2008.921,98.178L2008.921,167.012Z" style="fill:rgb(146,2,3);"/>
            </g>
            <g transform="matrix(0.194664,-0,-0,-0.194664,-214.451036,65)">
                <path d="M2008.921,167.012L1842.025,167.012L1842.025,0L1911.194,0L1911.194,98.178L2008.921,98.178L2008.921,167.012Z" style="fill:rgb(146,2,3);"/>
            </g>
        </g>
        <g transform="matrix(0.619861,0,0,0.619861,12.955028,28.033152)">
            <path d="M194.426,84.929L180.259,199.012L157.75,199.012L165.778,132.614C165.988,131.205 166.25,129.665 166.565,127.994C166.88,126.272 167.247,124.497 167.667,122.67L133.194,181.552C132.092,183.274 130.702,184.579 129.023,185.467C127.396,186.354 125.586,186.798 123.592,186.798L120.129,186.798C118.135,186.798 116.404,186.354 114.935,185.467C113.466,184.579 112.416,183.274 111.786,181.552L91.638,122.435C91.586,124.21 91.507,125.932 91.402,127.603C91.297,129.273 91.166,130.813 91.008,132.223L83.138,199.012L60.471,199.012L74.638,84.929L94.157,84.929C95.259,84.929 96.177,84.982 96.911,85.086C97.698,85.19 98.38,85.373 98.958,85.634C99.535,85.895 100.06,86.287 100.532,86.809C101.056,87.331 101.607,88.009 102.185,88.844L122.333,148.9C122.91,150.519 123.435,152.189 123.907,153.912C124.379,155.582 124.825,157.279 125.245,159.001C126.032,157.279 126.872,155.582 127.763,153.912C128.655,152.189 129.626,150.519 130.676,148.9L165.778,88.844C166.565,88.009 167.273,87.331 167.903,86.809C168.532,86.287 169.162,85.895 169.792,85.634C170.421,85.373 171.13,85.19 171.917,85.086C172.704,84.982 173.648,84.929 174.75,84.929L194.426,84.929Z" style="fill:rgb(146,2,3);fill-rule:nonzero;"/>
        </g>
        <g transform="matrix(0.619861,0,0,0.619861,12.955028,28.033152)">
            <path d="M74.297,137.142C73.562,138.186 72.828,138.969 72.093,139.491C71.411,139.961 70.546,140.196 69.496,140.196C68.447,140.196 67.371,139.779 66.269,138.943C65.167,138.108 63.856,137.195 62.334,136.203C60.812,135.159 59.002,134.219 56.903,133.384C54.805,132.549 52.286,132.131 49.348,132.131C46.514,132.131 43.996,132.549 41.792,133.384C39.588,134.219 37.726,135.368 36.204,136.829C34.735,138.291 33.607,140.013 32.82,141.997C32.085,143.981 31.718,146.121 31.718,148.418C31.718,150.819 32.321,152.829 33.528,154.447C34.787,156.013 36.414,157.396 38.408,158.597C40.402,159.797 42.684,160.867 45.255,161.807C47.826,162.747 50.423,163.738 53.047,164.782C55.723,165.826 58.346,167.027 60.917,168.384C63.488,169.741 65.771,171.412 67.765,173.395C69.758,175.379 71.359,177.78 72.566,180.599C73.825,183.366 74.454,186.732 74.454,190.7C74.454,196.233 73.484,201.453 71.542,206.36C69.601,211.266 66.846,215.573 63.278,219.279C59.711,222.933 55.355,225.856 50.214,228.049C45.071,230.189 39.326,231.259 32.977,231.259C29.672,231.259 26.419,230.894 23.218,230.163C20.017,229.484 17,228.492 14.167,227.187C11.333,225.882 8.71,224.316 6.296,222.489C3.883,220.662 1.784,218.627 0,216.382L7.241,206.673C7.818,205.942 8.553,205.342 9.445,204.872C10.336,204.402 11.229,204.167 12.12,204.167C12.96,204.167 13.773,204.428 14.56,204.95C15.4,205.472 16.292,206.125 17.236,206.908C18.233,207.639 19.283,208.474 20.384,209.413C21.539,210.301 22.824,211.136 24.241,211.919C25.71,212.65 27.363,213.276 29.199,213.798C31.088,214.32 33.213,214.581 35.574,214.581C41.556,214.581 46.226,212.911 49.584,209.57C52.942,206.229 54.621,201.609 54.621,195.711C54.621,193.101 54.017,190.961 52.811,189.29C51.604,187.62 50.004,186.21 48.01,185.062C46.016,183.914 43.733,182.922 41.163,182.087C38.644,181.199 36.073,180.286 33.449,179.346C30.826,178.354 28.229,177.232 25.658,175.979C23.139,174.674 20.883,173.03 18.889,171.046C16.895,169.011 15.295,166.531 14.088,163.608C12.881,160.685 12.278,157.083 12.278,152.802C12.278,147.948 13.17,143.276 14.954,138.787C16.79,134.298 19.388,130.356 22.746,126.963C26.156,123.518 30.249,120.778 35.023,118.742C39.851,116.654 45.281,115.61 51.315,115.61C54.411,115.61 57.376,115.923 60.209,116.55C63.095,117.176 65.771,118.063 68.237,119.212C70.703,120.36 72.959,121.743 75.005,123.362C77.104,124.928 78.914,126.676 80.436,128.608L74.297,137.142Z" style="fill:rgb(115,213,240);fill-rule:nonzero;"/>
        </g>
    </g>
</svg>
