<svg width="483" height="150" viewBox="0 0 483 150" fill="none" xmlns="http://www.w3.org/2000/svg">
<path d="M45.227 73.258C44.7883 73.8847 44.3497 74.3547 43.911 74.668C43.5037 74.95 42.9867 75.091 42.36 75.091C41.7333 75.091 41.091 74.8403 40.433 74.339C39.775 73.8377 38.9917 73.2893 38.083 72.694C37.1743 72.0673 36.0933 71.5033 34.84 71.002C33.5867 70.5007 32.0827 70.25 30.328 70.25C28.636 70.25 27.132 70.5007 25.816 71.002C24.5 71.5033 23.3877 72.1927 22.479 73.07C21.6017 73.9473 20.928 74.9813 20.458 76.172C20.0193 77.3627 19.8 78.6473 19.8 80.026C19.8 81.4673 20.1603 82.6737 20.881 83.645C21.633 84.585 22.6043 85.4153 23.795 86.136C24.9857 86.8567 26.3487 87.499 27.884 88.063C29.4193 88.627 30.9703 89.2223 32.537 89.849C34.135 90.4757 35.7017 91.1963 37.237 92.011C38.7723 92.8257 40.1353 93.8283 41.326 95.019C42.5167 96.2097 43.4723 97.651 44.193 99.343C44.945 101.004 45.321 103.025 45.321 105.406C45.321 108.727 44.7413 111.861 43.582 114.806C42.4227 117.751 40.7777 120.336 38.647 122.561C36.5163 124.754 33.9157 126.509 30.845 127.825C27.7743 129.11 24.3433 129.752 20.552 129.752C18.578 129.752 16.6353 129.533 14.724 129.094C12.8127 128.687 11.011 128.091 9.319 127.308C7.627 126.525 6.06033 125.585 4.619 124.488C3.17767 123.391 1.92433 122.169 0.859 120.822L5.183 114.994C5.52767 114.555 5.96633 114.195 6.499 113.913C7.03167 113.631 7.56433 113.49 8.097 113.49C8.59833 113.49 9.084 113.647 9.554 113.96C10.0553 114.273 10.588 114.665 11.152 115.135C11.7473 115.574 12.374 116.075 13.032 116.639C13.7213 117.172 14.489 117.673 15.335 118.143C16.2123 118.582 17.1993 118.958 18.296 119.271C19.424 119.584 20.693 119.741 22.103 119.741C25.675 119.741 28.4637 118.738 30.469 116.733C32.4743 114.728 33.477 111.955 33.477 108.414C33.477 106.847 33.1167 105.563 32.396 104.56C31.6753 103.557 30.7197 102.711 29.529 102.022C28.3383 101.333 26.9753 100.737 25.44 100.236C23.936 99.7033 22.4007 99.155 20.834 98.591C19.2673 97.9957 17.7163 97.322 16.181 96.57C14.677 95.7867 13.3297 94.7997 12.139 93.609C10.9483 92.387 9.99267 90.8987 9.272 89.144C8.55133 87.3893 8.191 85.2273 8.191 82.658C8.191 79.744 8.72367 76.9397 9.789 74.245C10.8857 71.5503 12.4367 69.1847 14.442 67.148C16.4787 65.08 18.9227 63.435 21.774 62.213C24.6567 60.9597 27.8997 60.333 31.503 60.333C33.3517 60.333 35.122 60.521 36.814 60.897C38.5373 61.273 40.1353 61.8057 41.608 62.495C43.0807 63.1843 44.428 64.0147 45.65 64.986C46.9033 65.926 47.9843 66.9757 48.893 68.135L45.227 73.258ZM63.1208 117.72C64.1861 118.879 65.4081 119.694 66.7868 120.164C68.1654 120.634 69.5128 120.869 70.8288 120.869C72.8968 120.869 74.7768 120.227 76.4688 118.942C78.1608 117.657 79.6178 115.981 80.8398 113.913C82.0618 111.845 83.0018 109.526 83.6598 106.957C84.3178 104.356 84.6468 101.756 84.6468 99.155C84.6468 95.771 84.0828 93.2643 82.9548 91.635C81.8581 89.9743 80.3228 89.144 78.3488 89.144C77.0641 89.144 75.7638 89.5827 74.4478 90.46C73.1318 91.3373 71.8628 92.5437 70.6408 94.079C69.4188 95.583 68.2751 97.369 67.2098 99.437C66.1758 101.505 65.2828 103.73 64.5308 106.111L63.1208 117.72ZM65.7058 91.4C68.0244 87.922 70.6408 85.1647 73.5548 83.128C76.5001 81.06 79.6178 80.026 82.9078 80.026C84.9131 80.026 86.7304 80.402 88.3598 81.154C89.9891 81.8747 91.3835 82.9713 92.5428 84.444C93.7021 85.9167 94.5951 87.781 95.2218 90.037C95.8484 92.293 96.1618 94.9407 96.1618 97.98C96.1618 100.706 95.8798 103.385 95.3158 106.017C94.7518 108.649 93.9528 111.14 92.9188 113.49C91.8848 115.84 90.6471 118.002 89.2058 119.976C87.7958 121.95 86.2135 123.658 84.4588 125.099C82.7041 126.54 80.8241 127.668 78.8188 128.483C76.8448 129.298 74.7924 129.705 72.6618 129.705C70.4684 129.705 68.4944 129.313 66.7398 128.53C65.0164 127.747 63.4968 126.681 62.1808 125.334L59.7838 144.745H48.5038L56.3058 80.731H62.1808C63.4028 80.731 64.3428 81.0287 65.0008 81.624C65.6901 82.2193 66.0348 83.175 66.0348 84.491L65.7058 91.4ZM126.248 88.204C124.681 88.204 123.224 88.533 121.877 89.191C120.529 89.8177 119.307 90.7107 118.211 91.87C117.145 93.0293 116.205 94.4237 115.391 96.053C114.607 97.651 113.981 99.4057 113.511 101.317C117.396 100.784 120.514 100.205 122.864 99.578C125.245 98.92 127.078 98.2307 128.363 97.51C129.647 96.758 130.493 95.959 130.901 95.113C131.339 94.2357 131.559 93.327 131.559 92.387C131.559 91.917 131.449 91.4313 131.23 90.93C131.042 90.4287 130.728 89.99 130.29 89.614C129.882 89.2067 129.334 88.8777 128.645 88.627C127.987 88.345 127.188 88.204 126.248 88.204ZM112.524 109.354C112.524 116.937 115.735 120.728 122.159 120.728C123.537 120.728 124.759 120.603 125.825 120.352C126.89 120.07 127.814 119.741 128.598 119.365C129.412 118.989 130.133 118.566 130.76 118.096C131.418 117.626 132.013 117.203 132.546 116.827C133.11 116.451 133.658 116.138 134.191 115.887C134.723 115.605 135.303 115.464 135.93 115.464C136.306 115.464 136.666 115.558 137.011 115.746C137.387 115.934 137.716 116.185 137.998 116.498L140.959 120.07C139.298 121.731 137.669 123.172 136.071 124.394C134.473 125.616 132.843 126.619 131.183 127.402C129.522 128.185 127.767 128.765 125.919 129.141C124.07 129.517 122.065 129.705 119.903 129.705C117.083 129.705 114.529 129.235 112.242 128.295C109.954 127.324 107.996 125.976 106.367 124.253C104.737 122.498 103.468 120.399 102.56 117.955C101.682 115.48 101.244 112.722 101.244 109.683C101.244 107.145 101.51 104.654 102.043 102.21C102.607 99.766 103.406 97.4473 104.44 95.254C105.474 93.0607 106.743 91.0397 108.247 89.191C109.751 87.3423 111.443 85.7443 113.323 84.397C115.234 83.0497 117.318 82 119.574 81.248C121.861 80.496 124.305 80.12 126.906 80.12C129.412 80.12 131.606 80.4803 133.486 81.201C135.397 81.9217 136.979 82.8617 138.233 84.021C139.517 85.149 140.473 86.418 141.1 87.828C141.726 89.238 142.04 90.6167 142.04 91.964C142.04 94.126 141.601 96.1 140.724 97.886C139.878 99.672 138.342 101.27 136.118 102.68C133.924 104.09 130.916 105.312 127.094 106.346C123.271 107.349 118.414 108.148 112.524 108.743V109.354ZM171.963 88.204C170.396 88.204 168.939 88.533 167.592 89.191C166.244 89.8177 165.022 90.7107 163.926 91.87C162.86 93.0293 161.92 94.4237 161.106 96.053C160.322 97.651 159.696 99.4057 159.226 101.317C163.111 100.784 166.229 100.205 168.579 99.578C170.96 98.92 172.793 98.2307 174.078 97.51C175.362 96.758 176.208 95.959 176.616 95.113C177.054 94.2357 177.274 93.327 177.274 92.387C177.274 91.917 177.164 91.4313 176.945 90.93C176.757 90.4287 176.443 89.99 176.005 89.614C175.597 89.2067 175.049 88.8777 174.36 88.627C173.702 88.345 172.903 88.204 171.963 88.204ZM158.239 109.354C158.239 116.937 161.45 120.728 167.874 120.728C169.252 120.728 170.474 120.603 171.54 120.352C172.605 120.07 173.529 119.741 174.312 119.365C175.127 118.989 175.848 118.566 176.475 118.096C177.133 117.626 177.728 117.203 178.261 116.827C178.825 116.451 179.373 116.138 179.906 115.887C180.438 115.605 181.018 115.464 181.645 115.464C182.021 115.464 182.381 115.558 182.726 115.746C183.102 115.934 183.431 116.185 183.713 116.498L186.674 120.07C185.013 121.731 183.384 123.172 181.786 124.394C180.188 125.616 178.558 126.619 176.898 127.402C175.237 128.185 173.482 128.765 171.634 129.141C169.785 129.517 167.78 129.705 165.618 129.705C162.798 129.705 160.244 129.235 157.957 128.295C155.669 127.324 153.711 125.976 152.082 124.253C150.452 122.498 149.183 120.399 148.275 117.955C147.397 115.48 146.959 112.722 146.959 109.683C146.959 107.145 147.225 104.654 147.758 102.21C148.322 99.766 149.121 97.4473 150.155 95.254C151.189 93.0607 152.458 91.0397 153.962 89.191C155.466 87.3423 157.158 85.7443 159.038 84.397C160.949 83.0497 163.033 82 165.289 81.248C167.576 80.496 170.02 80.12 172.621 80.12C175.127 80.12 177.321 80.4803 179.201 81.201C181.112 81.9217 182.694 82.8617 183.948 84.021C185.232 85.149 186.188 86.418 186.815 87.828C187.441 89.238 187.755 90.6167 187.755 91.964C187.755 94.126 187.316 96.1 186.439 97.886C185.593 99.672 184.057 101.27 181.833 102.68C179.639 104.09 176.631 105.312 172.809 106.346C168.986 107.349 164.129 108.148 158.239 108.743V109.354ZM225.712 92.011C224.647 90.8517 223.425 90.037 222.046 89.567C220.667 89.097 219.304 88.862 217.957 88.862C215.889 88.862 214.009 89.5043 212.317 90.789C210.625 92.0737 209.168 93.75 207.946 95.818C206.755 97.886 205.831 100.22 205.173 102.821C204.515 105.39 204.186 107.975 204.186 110.576C204.186 113.96 204.734 116.482 205.831 118.143C206.959 119.772 208.51 120.587 210.484 120.587C211.737 120.587 213.022 120.164 214.338 119.318C215.654 118.441 216.923 117.25 218.145 115.746C219.367 114.211 220.495 112.409 221.529 110.341C222.594 108.273 223.503 106.048 224.255 103.667L225.712 92.011ZM241.175 59.158L232.527 129H226.37C224.897 129 223.895 128.64 223.362 127.919C222.861 127.167 222.61 126.243 222.61 125.146L223.033 118.425C221.874 120.148 220.636 121.715 219.32 123.125C218.004 124.504 216.625 125.679 215.184 126.65C213.743 127.621 212.239 128.373 210.672 128.906C209.137 129.439 207.554 129.705 205.925 129.705C203.92 129.705 202.102 129.345 200.473 128.624C198.844 127.872 197.449 126.76 196.29 125.287C195.131 123.814 194.238 121.95 193.611 119.694C192.984 117.438 192.671 114.775 192.671 111.704C192.671 108.978 192.953 106.315 193.517 103.714C194.081 101.082 194.88 98.591 195.914 96.241C196.948 93.891 198.17 91.729 199.58 89.755C201.021 87.781 202.619 86.0733 204.374 84.632C206.129 83.1907 207.993 82.0627 209.967 81.248C211.972 80.4333 214.04 80.026 216.171 80.026C218.333 80.026 220.291 80.4177 222.046 81.201C223.801 81.9843 225.336 83.0653 226.652 84.444L229.801 59.158H241.175Z" fill="#0EA5E9"/>
<path d="M315.432 59.064L306.792 129H293.064L297.96 88.296C298.088 87.432 298.248 86.488 298.44 85.464C298.632 84.408 298.856 83.32 299.112 82.2L278.088 118.296C277.416 119.352 276.568 120.152 275.544 120.696C274.552 121.24 273.448 121.512 272.232 121.512H270.12C268.904 121.512 267.848 121.24 266.952 120.696C266.056 120.152 265.416 119.352 265.032 118.296L252.744 82.056C252.712 83.144 252.664 84.2 252.6 85.224C252.536 86.248 252.456 87.192 252.36 88.056L247.56 129H233.736L242.376 59.064H254.28C254.952 59.064 255.512 59.096 255.96 59.16C256.44 59.224 256.856 59.336 257.208 59.496C257.56 59.656 257.88 59.896 258.168 60.216C258.488 60.536 258.824 60.952 259.176 61.464L271.464 98.28C271.816 99.272 272.136 100.296 272.424 101.352C272.712 102.376 272.984 103.416 273.24 104.472C273.72 103.416 274.232 102.376 274.776 101.352C275.32 100.296 275.912 99.272 276.552 98.28L297.96 61.464C298.44 60.952 298.872 60.536 299.256 60.216C299.64 59.896 300.024 59.656 300.408 59.496C300.792 59.336 301.224 59.224 301.704 59.16C302.184 59.096 302.76 59.064 303.432 59.064H315.432ZM337.613 71.112L335.549 88.008H355.325L353.789 99.624H334.109L331.949 116.952H358.013L356.477 129H314.717L323.357 59.064H365.021L363.485 71.112H337.613ZM424.748 89.544C424.748 93.352 424.316 96.968 423.452 100.392C422.588 103.784 421.356 106.952 419.756 109.896C418.156 112.808 416.204 115.448 413.9 117.816C411.628 120.152 409.068 122.152 406.22 123.816C403.404 125.48 400.316 126.76 396.956 127.656C393.628 128.552 390.124 129 386.444 129H361.292L369.932 59.064H395.084C399.66 59.064 403.772 59.848 407.42 61.416C411.1 62.952 414.22 65.08 416.78 67.8C419.34 70.52 421.308 73.736 422.684 77.448C424.06 81.16 424.748 85.192 424.748 89.544ZM408.716 89.928C408.716 87.08 408.38 84.504 407.708 82.2C407.068 79.864 406.092 77.88 404.78 76.248C403.5 74.616 401.916 73.352 400.028 72.456C398.14 71.56 395.98 71.112 393.548 71.112H384.14L378.572 116.952H387.98C391.18 116.952 394.06 116.328 396.62 115.08C399.18 113.8 401.356 111.992 403.148 109.656C404.94 107.32 406.316 104.488 407.276 101.16C408.236 97.832 408.716 94.088 408.716 89.928Z" fill="#CA1606"/>
<rect x="443" y="80" width="16.5517" height="40" transform="rotate(180 443 80)" fill="#0EA5E9"/>
<rect x="403" y="56.5517" width="16.5517" height="40" transform="rotate(-90 403 56.5517)" fill="#0EA5E9"/>
<path d="M443 3.05176e-05L459.552 2.76236e-05L459.552 40L443 40L443 3.05176e-05Z" fill="#0EA5E9"/>
<path d="M483 23.4483L483 40L443 40L443 23.4483L483 23.4483Z" fill="#0EA5E9"/>
<path d="M403 40L403 23.4483L443 23.4483L443 40L403 40Z" fill="#CA1606"/>
<path d="M426.448 7.62939e-06L443 7.62939e-06L443 40L426.448 40L426.448 7.62939e-06Z" fill="#CA1606"/>
<path d="M483 40L483 56.5517L443 56.5517L443 40L483 40Z" fill="#CA1606"/>
<path d="M459.552 80L443 80L443 40L459.552 40L459.552 80Z" fill="#CA1606"/>
</svg>
